Coordinates
version=1
nRows=26
nColumns=27
inDegrees=yes

Units are S.I. units (second, meters, Newtons, ...)
If the header above contains a line with 'inDegrees', this indicates whether rotational values are in degrees (yes) or radians (no).

endheader
time	pelvis_rotation	pelvis_tilt	pelvis_list	pelvis_tx	pelvis_ty	pelvis_tz	hip_flexion_r	hip_adduction_r	hip_rotation_r	knee_angle_r	knee_rotation_r	knee_adduction_r	knee_angle_r_beta	ankle_angle_r	subtalar_angle_r	mtp_angle_r	hip_flexion_l	hip_adduction_l	hip_rotation_l	knee_angle_l	knee_rotation_l	knee_adduction_l	knee_angle_l_beta	ankle_angle_l	subtalar_angle_l	mtp_angle_l
      5.38000000	      9.89553057	    -44.73078640	      7.17725015	     -0.06366520	      0.60402151	     -1.14733194	    118.57147879	    -45.56863794	      7.13759113	     84.25853845	      0.00000000	      9.75889709	      1.47058892	      8.59881514	      0.00000000	      0.00000000	    113.19793064	    -31.85873139	     -1.85285075	     77.39306259	      0.00000000	     -9.86949831	      1.35076376	      0.52188545	      0.00000000	      0.00000000
      5.38500000	      9.88721909	    -44.75192638	      7.21699722	     -0.06356618	      0.60638406	     -1.14755866	    118.16077766	    -45.55811093	      6.81479845	     83.83000582	      0.00000000	      9.75726491	      1.46310961	      8.47654088	      0.00000000	      0.00000000	    112.78607961	    -31.83250528	     -2.16290165	     76.98533740	      0.00000000	     -9.86895249	      1.34364761	      0.43416645	      0.00000000	      0.00000000
      5.39000000	      9.88201023	    -44.74305626	      7.20990607	     -0.06341713	      0.60869417	     -1.14779894	    117.68246213	    -45.58847383	      6.43262634	     83.40596213	      0.00000000	      9.75733912	      1.45570866	      8.35259053	      0.00000000	      0.00000000	    112.38729209	    -31.78118490	     -2.41139191	     76.59677503	      0.00000000	     -9.86851706	      1.33686592	      0.36109893	      0.00000000	      0.00000000
      5.39500000	      9.28411856	    -44.67584985	      7.07679820	     -0.06351275	      0.61109673	     -1.14782933	    117.12053737	    -44.91849240	      6.24125207	     82.91263198	      0.00000000	      9.54566385	      1.44709842	      8.20022865	      0.00000000	      0.00000000	    111.77745722	    -32.28056448	     -2.82528476	     76.18583219	      0.00000000	     -9.75312986	      1.32969362	      0.25462759	      0.00000000	      0.00000000
      5.40000000	      9.95075754	    -44.70591943	      7.20448146	     -0.06297421	      0.61319660	     -1.14832059	    116.69437648	    -45.73958616	      5.64431347	     82.57259181	      0.00000000	      9.75849012	      1.44116360	      8.13296498	      0.00000000	      0.00000000	    111.60112604	    -31.60704664	     -2.87698509	     75.83428420	      0.00000000	     -9.86741262	      1.32355795	      0.22291535	      0.00000000	      0.00000000
      5.40500000	      9.24026185	    -44.64086395	      7.13025405	     -0.06303146	      0.61552132	     -1.14832758	    116.25146148	    -44.90425495	      5.63234215	     82.09433283	      0.00000000	      9.54443156	      1.43281641	      7.98012380	      0.00000000	      0.00000000	    110.91038415	    -32.26191805	     -3.43603098	     75.43183428	      0.00000000	     -9.75217746	      1.31653387	      0.10853363	      0.00000000	      0.00000000
      5.41000000	      9.92060319	    -44.70024708	      7.29529273	     -0.06246426	      0.61753248	     -1.14880607	    115.89302102	    -45.70229337	      5.08548365	     81.77322662	      0.00000000	      9.75839953	      1.42721204	      7.91276662	      0.00000000	      0.00000000	    110.76274626	    -31.59962700	     -3.50717701	     75.08792729	      0.00000000	     -9.86699163	      1.31053156	      0.06914659	      0.00000000	      0.00000000
      5.41500000	      9.25851932	    -44.57926841	      7.16519446	     -0.06239314	      0.61977371	     -1.14884532	    115.34579219	    -44.97815477	      4.98481756	     81.30551071	      0.00000000	      9.54703699	      1.41904886	      7.75456422	      0.00000000	      0.00000000	    110.07692572	    -32.17627829	     -3.98429444	     74.70892307	      0.00000000	     -9.75111445	      1.30391669	     -0.02720555	      0.00000000	      0.00000000
      5.42000000	     10.02347730	    -44.56392033	      7.32367043	     -0.06168380	      0.62157332	     -1.14938437	    114.90435432	    -45.89993406	      4.39791120	     81.02094239	      0.00000000	      9.76147482	      1.41408221	      7.70399136	      0.00000000	      0.00000000	    109.92555862	    -31.43196421	     -3.97641447	     74.41525367	      0.00000000	     -9.86616691	      1.29879119	      0.01410164	      0.00000000	      0.00000000
      5.42500000	      9.88878407	    -44.58326554	      7.31426428	     -0.06136501	      0.62374070	     -1.14959739	    114.48866554	    -45.75793660	      4.11342984	     80.60556254	      0.00000000	      9.76021006	      1.40683246	      7.59520687	      0.00000000	      0.00000000	    109.51788460	    -31.52560870	     -4.29001134	     74.04760341	      0.00000000	     -9.86701983	      1.29237448	     -0.10553484	      0.00000000	      0.00000000
      5.43000000	      9.28726800	    -44.45562188	      7.21115711	     -0.06122984	      0.62585055	     -1.14965263	    113.98465712	    -45.08753979	      4.06359133	     80.16399328	      0.00000000	      9.55136257	      1.39912562	      7.44432651	      0.00000000	      0.00000000	    108.83956006	    -32.04388667	     -4.75699400	     73.68098007	      0.00000000	     -9.75043168	      1.28597570	     -0.20677737	      0.00000000	      0.00000000
      5.43500000	      9.93970375	    -44.48971018	      7.35940703	     -0.06050759	      0.62771331	     -1.15013970	    113.57903008	    -45.85609098	      3.49582876	     79.86483012	      0.00000000	      9.76236879	      1.39390424	      7.38431526	      0.00000000	      0.00000000	    108.69729671	    -31.41513992	     -4.79664123	     73.37130276	      0.00000000	     -9.86624303	      1.28057081	     -0.22079296	      0.00000000	      0.00000000
      5.44000000	      9.28967661	    -44.37361845	      7.22757644	     -0.06032583	      0.62976803	     -1.15019181	    113.08159174	    -45.14166128	      3.45680846	     79.42377093	      0.00000000	      9.55378536	      1.38620631	      7.24170074	      0.00000000	      0.00000000	    108.03822120	    -31.97037795	     -5.24978444	     73.02523733	      0.00000000	     -9.75035098	      1.27453083	     -0.31634732	      0.00000000	      0.00000000
      5.44500000	      9.95588628	    -44.38572768	      7.40462115	     -0.05955424	      0.63158208	     -1.15067592	    112.68165014	    -45.91533557	      2.91522380	     79.13733602	      0.00000000	      9.76429196	      1.38120707	      7.17894849	      0.00000000	      0.00000000	    107.86743865	    -31.33770668	     -5.30422557	     72.71697521	      0.00000000	     -9.86630957	      1.26915064	     -0.34181591	      0.00000000	      0.00000000
      5.45000000	      9.90945197	    -44.33958352	      7.38576101	     -0.05901625	      0.63350146	     -1.15094525	    112.20833363	    -45.89974454	      2.60244561	     78.77061809	      0.00000000	      9.76492954	      1.37480664	      7.07329188	      0.00000000	      0.00000000	    107.46893085	    -31.34197829	     -5.53498833	     72.40807098	      0.00000000	     -9.86666120	      1.26375924	     -0.38751269	      0.00000000	      0.00000000
      5.45500000	      9.32647991	    -44.18586701	      7.27468364	     -0.05871622	      0.63549184	     -1.15103252	    111.69555808	    -45.26420248	      2.57823741	     78.34734689	      0.00000000	      9.55847932	      1.36741916	      6.94890017	      0.00000000	      0.00000000	    106.77716031	    -31.82956778	     -5.99053972	     72.06413052	      0.00000000	     -9.75009979	      1.25775635	     -0.47638989	      0.00000000	      0.00000000
      5.46000000	      9.96169032	    -44.20949738	      7.44068783	     -0.05786562	      0.63724164	     -1.15151862	    111.29084771	    -46.00453214	      2.02732735	     78.06735114	      0.00000000	      9.76668585	      1.36253232	      6.89125545	      0.00000000	      0.00000000	    106.63151875	    -31.22182809	     -6.01170723	     71.77828649	      0.00000000	     -9.86608589	      1.25276743	     -0.48582009	      0.00000000	      0.00000000
      5.46500000	      9.92786475	    -44.15814218	      7.44670075	     -0.05726006	      0.63913484	     -1.15181359	    110.83790936	    -45.99740468	      1.74359107	     77.70180856	      0.00000000	      9.76760030	      1.35615239	      6.79024287	      0.00000000	      0.00000000	    106.21388254	    -31.21293189	     -6.25688242	     71.46934495	      0.00000000	     -9.86646225	      1.24737538	     -0.50316739	      0.00000000	      0.00000000
      5.47000000	      9.94942449	    -44.11076263	      7.45253609	     -0.05662723	      0.64099642	     -1.15210102	    110.36636580	    -46.04566742	      1.42598860	     77.35164813	      0.00000000	      9.76788138	      1.35004094	      6.69889011	      0.00000000	      0.00000000	    105.82789166	    -31.14591292	     -6.46081243	     71.16060730	      0.00000000	     -9.86612517	      1.24198690	     -0.56078625	      0.00000000	      0.00000000
      5.47500000	      9.92672773	    -44.06659266	      7.44443171	     -0.05596482	      0.64286507	     -1.15239755	    109.89895029	    -46.05398238	      1.11502585	     76.99434546	      0.00000000	      9.76862953	      1.34380483	      6.61101935	      0.00000000	      0.00000000	    105.43864553	    -31.11766550	     -6.67164354	     70.85974362	      0.00000000	     -9.86603691	      1.23673583	     -0.59450603	      0.00000000	      0.00000000
      5.48000000	      9.27265088	    -43.93542040	      7.32122666	     -0.05557035	      0.64481348	     -1.15248792	    109.43961710	    -45.34046484	      1.16299340	     76.57159851	      0.00000000	      9.56412038	      1.33642651	      6.49410843	      0.00000000	      0.00000000	    104.74609134	    -31.65427382	     -7.14539118	     70.53222155	      0.00000000	     -9.74934021	      1.23101949	     -0.67481728	      0.00000000	      0.00000000
      5.48500000	      9.97091390	    -43.92434951	      7.27861843	     -0.05453258	      0.64662062	     -1.15303936	    108.66975425	    -46.24534118	      0.16090169	     76.25053760	      0.00000000	      9.77101818	      1.33082294	      6.44270081	      0.00000000	      0.00000000	    104.74397249	    -30.89765546	     -6.82270337	     70.26010179	      0.00000000	     -9.86525841	      1.22627011	     -0.65846286	      0.00000000	      0.00000000
      5.49000000	      9.88934083	    -43.84882292	      7.47424428	     -0.05382676	      0.64841632	     -1.15333316	    108.45633919	    -46.11452875	      0.23205328	     75.92954171	      0.00000000	      9.77047504	      1.32522050	      6.33477574	      0.00000000	      0.00000000	    104.14615291	    -30.99331222	     -7.34349128	     69.94790938	      0.00000000	     -9.86579828	      1.22082132	     -0.69946014	      0.00000000	      0.00000000
      5.49500000	      9.87246649	    -43.77909744	      7.48897234	     -0.05308591	      0.65021905	     -1.15364351	    107.99842187	    -46.12590041	     -0.03759886	     75.58372036	      0.00000000	      9.77103528	      1.31918478	      6.23774528	      0.00000000	      0.00000000	    103.71512607	    -30.95118955	     -7.56484339	     69.64444391	      0.00000000	     -9.86553622	      1.21552485	     -0.71847297	      0.00000000	      0.00000000
      5.50000000	      9.79942114	    -43.69427256	      7.47141245	     -0.05233951	      0.65203465	     -1.15392474	    107.49173197	    -46.08796815	     -0.33273780	     75.22879379	      0.00000000	      9.77197588	      1.31299014	      6.18607276	      0.00000000	      0.00000000	    103.27247983	    -30.94788942	     -7.76893261	     69.35183747	      0.00000000	     -9.86570093	      1.21041791	     -0.74668447	      0.00000000	      0.00000000
      5.50500000	      9.81696242	    -43.62826443	      7.50465048	     -0.05155021	      0.65382849	     -1.15425219	    107.04273179	    -46.13544027	     -0.61048749	     74.88889530	      0.00000000	      9.77226434	      1.30705780	      6.08805784	      0.00000000	      0.00000000	    102.84726211	    -30.87592756	     -7.99014543	     69.05361057	      0.00000000	     -9.86498314	      1.20521286	     -0.76409557	      0.00000000	      0.00000000
